<?xml version="1.0" standalone="no"?>
<!DOCTYPE svg PUBLIC "-//W3C//DTD SVG 20010904//EN"
 "http://www.w3.org/TR/2001/REC-SVG-20010904/DTD/svg10.dtd">
<svg version="1.0" xmlns="http://www.w3.org/2000/svg"
 width="383.000000pt" height="383.000000pt" viewBox="0 0 383.000000 383.000000"
 preserveAspectRatio="xMidYMid meet">
<metadata>
Created by potrace 1.11, written by Peter Selinger 2001-2013
</metadata>
<g transform="translate(0.000000,383.000000) scale(0.100000,-0.100000)"
fill="#000000" stroke="none">
<path d="M1885 3821 c-6 -5 -37 -23 -70 -41 -84 -46 -101 -55 -550 -305 -220
-122 -418 -232 -440 -244 -22 -12 -53 -30 -70 -39 -16 -10 -68 -39 -115 -65
-47 -25 -168 -92 -270 -149 l-185 -103 0 -954 c0 -524 2 -956 5 -960 3 -4 86
-52 185 -106 99 -54 196 -107 215 -118 19 -11 145 -80 280 -155 135 -74 265
-146 290 -160 25 -13 74 -40 110 -60 36 -19 70 -38 75 -42 6 -4 42 -24 80 -45
95 -51 173 -94 347 -191 81 -45 148 -79 150 -75 2 4 116 70 253 146 138 76
268 149 290 161 22 13 56 31 75 42 19 10 78 43 130 72 52 29 120 66 150 83 30
16 89 49 130 72 41 24 100 56 130 72 30 17 147 82 260 145 113 63 212 117 220
121 35 18 63 36 69 45 9 15 3 1904 -6 1912 -4 4 -35 22 -68 40 -33 18 -94 52
-135 75 -41 23 -104 58 -140 77 -36 20 -128 71 -205 113 -77 43 -162 90 -190
105 -27 15 -66 36 -85 47 -19 11 -71 39 -115 63 -44 24 -134 73 -200 110 -66
37 -156 87 -200 111 -44 23 -142 78 -219 121 -153 85 -168 92 -181 79z m136
-125 c63 -34 146 -80 184 -101 72 -40 214 -118 275 -152 19 -11 71 -39 115
-63 44 -23 85 -46 90 -50 6 -4 46 -27 90 -50 69 -37 210 -115 402 -221 28 -16
71 -39 95 -52 130 -70 289 -160 293 -167 2 -3 5 -418 7 -920 l2 -913 -24 -16
c-13 -9 -53 -32 -89 -52 -36 -19 -147 -81 -246 -136 -99 -55 -207 -115 -240
-133 -33 -18 -130 -72 -215 -120 -85 -48 -186 -104 -225 -125 -38 -21 -119
-66 -180 -100 -60 -34 -141 -79 -180 -100 -38 -21 -74 -41 -80 -45 -5 -4 -50
-29 -98 -55 l-88 -47 -122 68 c-67 37 -142 78 -167 92 -25 14 -171 95 -325
180 -154 85 -314 173 -355 195 -41 22 -92 51 -112 64 -21 12 -39 23 -42 23 -2
0 -107 57 -232 126 -126 70 -247 136 -269 148 l-40 21 -1 921 -2 920 71 39
c40 22 96 54 127 71 589 329 1393 774 1397 774 3 0 16 9 30 20 14 11 29 20 33
20 4 0 59 -29 121 -64z"/>
<path d="M1810 3459 c-52 -28 -156 -82 -230 -121 -74 -39 -162 -85 -195 -103
-33 -18 -116 -62 -185 -97 -69 -36 -179 -94 -245 -129 -165 -86 -286 -150
-375 -196 -158 -82 -185 -97 -190 -104 -4 -6 -4 -640 -1 -1471 l1 -126 133
-70 c72 -38 195 -102 272 -142 77 -40 176 -92 220 -115 113 -60 627 -327 813
-422 l92 -48 73 38 c71 38 220 116 452 237 66 34 163 85 215 113 52 27 131 68
175 91 44 22 82 43 85 46 3 3 50 28 105 56 142 72 355 183 391 205 l31 19 -1
794 c-1 516 -5 798 -11 804 -5 5 -86 49 -180 97 -93 48 -197 102 -230 120 -33
18 -145 76 -250 130 -104 54 -230 119 -280 145 -49 26 -148 78 -220 115 -71
37 -180 94 -241 126 -61 33 -115 59 -120 59 -5 -1 -52 -23 -104 -51z m186 -12
c44 -24 165 -88 269 -142 105 -54 235 -121 290 -150 55 -29 168 -87 250 -130
83 -43 202 -105 265 -138 63 -33 167 -87 230 -119 63 -33 117 -62 120 -65 7
-6 7 -1561 1 -1572 -3 -5 -54 -34 -113 -64 -59 -31 -149 -78 -200 -105 -89
-47 -192 -101 -433 -227 -60 -32 -150 -79 -200 -105 -49 -26 -142 -74 -205
-107 -63 -33 -168 -88 -233 -122 l-117 -62 -168 87 c-92 48 -228 118 -302 157
-74 38 -180 93 -235 122 -55 29 -167 87 -250 130 -82 43 -206 107 -275 143
-69 36 -160 83 -203 106 l-77 40 0 246 c-1 135 -2 487 -2 782 -1 330 2 541 7
547 6 5 62 36 125 69 63 33 180 95 260 137 80 42 170 88 200 103 30 15 57 29
60 32 3 3 41 24 85 46 106 55 287 149 650 340 66 35 121 64 121 64 1 0 37 -19
80 -43z"/>
<path d="M1835 3355 l-60 -34 0 -73 0 -73 67 -33 67 -33 63 33 63 33 0 75 0
74 -60 33 c-33 18 -64 32 -70 32 -5 0 -37 -15 -70 -34z"/>
<path d="M798 2623 c-97 -28 -180 -106 -209 -198 -18 -57 -21 -899 -3 -967 36
-140 147 -218 312 -219 176 -1 312 144 312 334 l0 72 -72 -2 c-141 -3 -125 6
-130 -73 -3 -60 -8 -74 -31 -98 -23 -22 -37 -27 -86 -29 -49 -1 -62 2 -79 20
-40 45 -43 76 -42 470 2 474 5 489 109 502 76 9 131 -52 131 -147 0 -48 3 -58
18 -59 70 -4 160 -3 172 3 26 11 9 163 -24 233 -65 133 -230 202 -378 158z"/>
<path d="M1465 2622 c-3 -3 -5 -313 -5 -689 0 -539 3 -683 13 -684 17 -1 137
-1 164 0 l23 1 2 293 3 292 54 0 55 0 44 -140 c24 -77 46 -147 49 -155 3 -8 7
-20 8 -25 8 -36 79 -252 85 -260 7 -8 123 -11 197 -6 7 1 -28 119 -93 309 -57
169 -104 310 -104 313 0 3 20 21 45 39 84 63 125 184 119 348 -7 195 -81 309
-234 358 -27 8 -417 14 -425 6z m396 -208 c49 -29 68 -92 64 -211 -6 -154 -35
-186 -176 -191 l-89 -4 0 216 0 217 83 -4 c60 -2 93 -9 118 -23z"/>
<path d="M2379 2625 c-1 0 -2 -309 -3 -687 l-1 -688 40 -1 c48 -1 136 -1 150
0 7 1 10 146 9 416 0 228 0 415 1 415 2 0 33 -93 70 -207 37 -115 80 -247 97
-294 l30 -86 48 0 49 1 97 293 c52 161 97 293 98 293 1 0 2 -185 2 -411 -1
-356 1 -412 14 -418 19 -9 169 -6 178 4 8 8 10 1364 2 1366 -8 2 -190 5 -190
3 0 -1 -45 -134 -101 -295 -55 -162 -111 -325 -124 -364 -14 -41 -26 -64 -29
-55 -19 50 -158 450 -213 611 l-36 106 -94 -1 c-51 -1 -94 -1 -94 -1z"/>
<path d="M1835 706 l-60 -33 -2 -69 -1 -69 68 -36 68 -36 59 29 c32 17 63 34
69 39 6 5 10 38 10 76 l-1 67 -60 33 c-33 18 -67 32 -75 33 -8 0 -42 -15 -75
-34z"/>
</g>
</svg>
